{"title":"Variola Vera (1982) dir. Goran Markovic","uid":7837726,"size":734058881,"categoryP":"video","categoryS":"movies","magnet":"?xt=urn:btih:24bc9c4e111367e512e833e38e2a189b2aec505a&amp;dn=Variola+Vera+%281982%29+dir.+Goran+Markovic&amp;tr=udp%3A%2F%2Ftracker.openbittorrent.com%3A80&amp;tr=udp%3A%2F%2Fopen.demonii.com%3A1337&amp;tr=udp%3A%2F%2Ftracker.coppersurfer.tk%3A6969&amp;tr=udp%3A%2F%2Fexodus.desync.com%3A6969","seeders":4,"leechers":1,"uploader":"chicolsd","files":3,"time":1353247370,"description":"The torrent includes the film with the original Serbian soundtrack, and two subtitle files: in spanish and english. \n\nThis movie is very hard to get in the internet, and this is the emule version. No Hd, but absolutely watchable. A classic Serbian film with Erland Josephson (classic actor from Ingmar Bergman and Andrei Tarkovskiy films) and Rade Serbedzija, who went to Hollywood later on (Snatch, The Saint, etc.)\n\nTechnical info (per Mediainfo): \n\nFormat                                   : AVI\nFormat/Info                              : Audio Video Interleave\nFile size                                : 700 MiB\nDuration                                 : 1h 44mn\nOverall bit rate                         : 940 Kbps\n\nVideo\nID                                       : 0\nFormat                                   : MPEG-4 Visual\nFormat profile                           : Simple@L3\nFormat settings, BVOP                    : 1\nFormat settings, QPel                    : No\nFormat settings, GMC                     : No warppoints\nFormat settings, Matrix                  : Default (H.263)\nMuxing mode                              : Packed bitstream\nCodec ID                                 : XVID\nCodec ID/Hint                            : XviD\nDuration                                 : 1h 44mn\nBit rate                                 : 806 Kbps\nWidth                                    : 640 pixels\nHeight                                   : 384 pixels\nDisplay aspect ratio                     : 1.667\nFrame rate                               : 25.000 fps\nColor space                              : YUV\nChroma subsampling                       : 4:2:0\nBit depth                                : 8 bits\nScan type                                : Progressive\nCompression mode                         : Lossy\nBits/(Pixel*Frame)                       : 0.131\nStream size                              : 600 MiB (86%)\nWriting library                          : XviD 1.1.0 Beta2 (UTC 2005-04-04)\n\nAudio\nID                                       : 1\nFormat                                   : MPEG Audio\nFormat version                           : Version 1\nFormat profile                           : Layer 3\nMode                                     : Joint stereo\nMode extension                           : MS Stereo\nCodec ID                                 : 55\nCodec ID/Hint                            : MP3\nDuration                                 : 1h 44mn\nSource duration                          : 1h 44mn\nBit rate mode                            : Constant\nBit rate                                 : 128 Kbps\nChannel(s)                               : 2 channels\nSampling rate                            : 48.0 KHz\nCompression mode                         : Lossy\nStream size                              : 95.3 MiB (14%)\nAlignment                                : Split accross interleaves\nInterleave, duration                     : 200 ms (5.00 video frames)\n\nEnjoy and share!","torrent":{"xt":"urn:btih:24bc9c4e111367e512e833e38e2a189b2aec505a","amp;dn":"Variola+Vera+%281982%29+dir.+Goran+Markovic","amp;tr":["udp%3A%2F%2Ftracker.openbittorrent.com%3A80","udp%3A%2F%2Fopen.demonii.com%3A1337","udp%3A%2F%2Ftracker.coppersurfer.tk%3A6969","udp%3A%2F%2Fexodus.desync.com%3A6969"],"infoHash":"24bc9c4e111367e512e833e38e2a189b2aec505a","infoHashBuffer":{"type":"Buffer","data":[36,188,156,78,17,19,103,229,18,232,51,227,142,42,24,155,42,236,80,90]},"announce":[],"urlList":[]}}